# xmcd
#
# Track frame offsets:
#	150
#	14766
#	31137
#	49218
#	63369
#	73979
#	88931
#	100507
#	119145
#	131763
#	143595
#
# Disc length: 2078 seconds
# Revision: 0
# Processed by: cddbd v1.5.2PL0 Copyright (c) Steve Scherf et al.
# Submitted via: dBpowerAMP V12.0
#
DISCID=a3081c0b
DTITLE=Waylon Jennings - Ol' Waylon [RCA] (L)
DYEAR=1977
DGENRE=Country
TTITLE0=Luckenbach,Texas (Back To The Basics Of Love)
TTITLE1=If You See Me Getting Smaller
TTITLE2=Lucille
TTITLE3=Sweet Caroline
TTITLE4=I Think I'm Gonna Kill Myself
TTITLE5=Belle Of The Ball
TTITLE6=My Baby Left Me)
TTITLE7=Till I Gain Control Again
TTITLE8=Brand New Goodbye Song
TTITLE9=Satin Sheets
TTITLE10=This Is Getting Funny (But There Ain't Nobody Laughing)
EXTD=
EXTT0=
EXTT1=
EXTT2=
EXTT3=
EXTT4=
EXTT5=
EXTT6=
EXTT7=
EXTT8=
EXTT9=
EXTT10=
PLAYORDER=
